<?xml version="1.0" encoding="UTF-8"?>
<!DOCTYPE svg PUBLIC "-//W3C//DTD SVG 1.1//EN" "http://www.w3.org/Graphics/SVG/1.1/DTD/svg11.dtd">
<!-- Creator: CorelDRAW X6 -->
<svg xmlns="http://www.w3.org/2000/svg" xml:space="preserve" width="12.8035in" height="6.6113in" version="1.1" style="shape-rendering:geometricPrecision; text-rendering:geometricPrecision; image-rendering:optimizeQuality; fill-rule:evenodd; clip-rule:evenodd"
viewBox="0 0 65712 33931"
 xmlns:xlink="http://www.w3.org/1999/xlink">
 <defs>
  <style type="text/css">
   <![CDATA[
    .str0 {stroke:#A5CA3C;stroke-width:171.085}
    .fil1 {fill:none}
    .fil0 {fill:#007E21}
    .fil3 {fill:#A5CA3C}
    .fil4 {fill:#007E21;fill-rule:nonzero}
    .fil2 {fill:#A5CA3C;fill-rule:nonzero}
   ]]>
  </style>
 </defs>
 <g id="Layer_x0020_1">
  <metadata id="CorelCorpID_0Corel-Layer"/>
  <path class="fil0 str0" d="M29774 16927l0 -1589c424,-167 483,-671 397,-1309l324 -441 309 -88c166,204 273,417 191,662 -11,266 -36,546 59,706 132,165 265,172 397,88l515 0c250,240 500,43 750,-235 239,-24 432,-175 588,-427l559 -736c391,-55 638,-327 794,-736 201,68 402,-119 603,-382 578,-24 1046,-108 1192,-368 162,-162 199,-324 15,-485 -52,-228 -47,-481 177,-780l7385 901c701,144 1261,525 1648,1336 606,808 1335,124 1765,235 187,-413 553,-441 1015,-265 338,81 677,-15 1015,-162l839 0 500 662 -59 1471 368 0c-278,415 -652,721 -1074,971l-1074 2368 -2104 0c-283,-83 -257,166 -29,633 264,530 503,1059 559,1589 154,742 282,1572 353,2604 77,731 -37,1285 -471,1545 -411,666 -564,1226 -309,1618 532,1202 784,2476 -59,4031l-986 544c-56,355 -58,695 162,971 365,390 833,666 780,1515 -36,397 -317,589 -1059,397l-1927 -780c-610,-783 -1200,-1387 -1692,-1147l-824 44c-501,143 -1021,307 -1162,15 -318,-468 -711,-615 -1147,-574 -1143,44 -2001,-137 -2045,-956 -47,-356 -188,-572 -441,-618 -468,-471 -528,-942 -368,-1412 83,-367 -212,-497 -456,-660 -86,-388 -14,-702 -530,-649 -450,170 -837,236 -736,-500 -192,-476 -117,-809 280,-971 54,-103 -89,-403 -206,-677 -412,-1691 -1373,-2418 -2766,-2383 159,-155 183,-412 177,-691 377,85 398,-158 265,-544 12,-720 165,-1188 530,-1280 247,-11 464,-174 633,-574 290,-153 422,-494 515,-883 584,-528 274,-948 -750,-1280 -471,-183 -640,-127 -721,0 -973,-810 -1847,-809 -2663,-324z"/>
  <path class="fil1" d="M38177 10066l94 377 -314 600 98 478c65,185 179,364 502,512l1826 303c345,143 666,334 901,698 78,360 193,648 418,714l1231 62 1412 609 -247 529 -2123 122 633 866 56 489 436 634 -86 621 273 772"/>
  <path class="fil2" d="M38259 9783l94 377 -7 60 -300 573 90 442c29,82 69,162 136,237 68,76 165,149 309,217l1814 301 19 5c178,74 350,160 509,276l0 0c161,117 307,263 431,454l12 28c38,174 84,329 146,445 54,102 120,174 204,203l1219 61 30 7 1369 591 218 -146 48 -14 268 3 1113 13 512 -472 57 -293 14 -69 84 16 14 3 70 14 -76 390 -26 46 -557 514 -58 22 -1388 -16 -216 144 -237 508 -22 46 -51 3 -1966 113 541 739 16 41 54 468 424 617 14 60 -83 600 208 587c135,-191 289,-329 468,-402 226,-92 485,-79 784,63l26 19 481 515 253 158 535 334 625 -175 208 -53 21 83 21 83 -807 222 -65 1372c95,314 128,621 62,916 -65,291 -224,567 -510,824 3,319 -93,634 -299,897 -173,221 -424,405 -758,521l5 7c66,102 133,203 192,303 228,381 354,727 35,936l-192 392 117 358 3 37 -65 493 -9 29 -387 723 -24 28 -228 173 -29 22 -36 -6 -528 -85 -341 243 344 401 1 1 31 34 -5 19 102 274 232 622 586 299 18 -3 751 -112 20 0c120,12 237,66 352,157 109,86 217,204 324,348l15 36 114 627 172 119 33 23 4 40 88 960 -85 8 0 0 -60 60 0 0 -24 -52 -11 -113 -73 -807 -168 -116 -35 -55 -117 -642c-94,-125 -188,-227 -280,-299 -86,-68 -171,-109 -253,-120l-627 94 -158 24 -51 -8 -640 -326 -41 -46 -261 -701 -186 702 -14 29 -278 376c271,486 461,964 534,1431 76,488 -58,1164 -280,1620l-77 -37 -77 -37c28,-57 52,-114 74,-171 143,-370 252,-955 191,-1348 -53,-345 -176,-699 -350,-1059 -58,-120 -122,-240 -191,-361l-27 -48 33 -45 118 -159 183 -247 238 -901 -620 -681 -358 -393 -11 -15 -539 -951 -457 -594 -145 145 -125 125 -9 128 -26 365 -7 29 -223 495 -16 24 -443 461 -119 443 -10 23 -298 481 162 939 304 261 36 31 -7 47 -168 1080 -16 417c129,317 165,537 145,699 -22,179 -129,409 -237,493l-52 -67 -52 -67 10 -8c72,-58 148,-254 163,-372 17,-138 -18,-336 -141,-631l-6 -35 17 -440 1 -10 162 -1038 -291 -250 -29 -50 -160 -930 -562 0 -485 278 -90 51 -34 -98 -246 -714 -481 -367 -18 -19 -243 -351 -285 -66 -34 -17 -82 -66 -242 -195c-237,99 -480,163 -723,188 -602,64 -857,-209 -1344,-672l59 -62 22 -23 37 -39c447,426 654,684 1208,626 599,-63 1203,-378 1689,-877l4 -4c311,-280 742,-418 1148,-548 219,-70 430,-138 607,-223 419,-203 638,-524 264,-1297 -364,-519 -815,-970 -1356,-1350 -534,-375 -1156,-679 -1869,-911 -231,153 -506,103 -814,-99 -267,-175 -563,-467 -876,-837l-36 -43c-8,15 -17,29 -25,44 -297,513 -648,941 -1010,1260 -83,73 -167,141 -251,203 -512,377 -1010,612 -1423,484l25 -82 25 -82c49,15 100,26 152,31 299,33 634,-164 997,-404 41,-27 82,-56 123,-86 462,-340 923,-872 1289,-1544l68 -1051 19 -48 682 -853c205,-504 483,-762 813,-848 326,-84 693,3 1085,188l160 37 -12 -293 -12 -275 22 -60 325 -359 40 -25 749 -208 -122 -309 -578 -473 -30 -25 -1 -40 -36 -1648 -342 -244 -6 -5 -599 -510 -873 -462 -100 -53 40 -76 40 -76 981 519 15 11 602 513 376 268 35 25 1 43 36 1652 565 463 25 35 147 373 195 33 100 17 923 -403 1172 -512 1 -1 728 -303 -29 -39 157 -9 2072 -119 188 -403 -1317 -568 -1215 -61 -20 -3c-137,-41 -238,-144 -315,-289 -69,-130 -119,-294 -159,-474 -109,-165 -238,-293 -379,-395l0 0c-144,-104 -301,-184 -465,-252l-1816 -302 -22 -7c-173,-80 -291,-169 -375,-263 -86,-96 -135,-197 -171,-298l-3 -11 -98 -478 8 -56 299 -571 -87 -346 166 -41zm2830 13352l683 604c81,-4 163,-2 247,15 85,18 170,52 254,112 99,-41 198,-59 298,-56 114,3 228,34 340,87l10 6c122,80 228,107 333,100 105,-7 214,-50 337,-111 53,-65 92,-131 128,-192 85,-143 154,-260 335,-321 -127,-105 -253,-196 -379,-277 -166,-106 -332,-194 -499,-271 -210,-35 -422,-39 -633,-22 -218,17 -435,56 -652,105l-16 2 -614 23c-68,59 -125,124 -172,196zm3147 378c-224,28 -288,136 -370,274 -41,70 -87,146 -156,228l-27 21c-149,75 -281,127 -417,137 -140,10 -278,-25 -433,-124 -90,-42 -179,-66 -267,-68 -88,-3 -177,16 -266,61l-50 25 -43 -35c-75,-62 -149,-94 -223,-110 -77,-16 -157,-15 -237,-10l-35 2 -27 -24 -678 -599c-31,78 -53,162 -66,253 -42,309 25,696 209,1165l512 666 7 10 537 947 194 213 335 368 112 -80 287 -205 63 -15 527 85 184 -139 371 -693 60 -458 -122 -373 4 -64 217 -444 33 -36c223,-133 114,-407 -71,-717 -51,-85 -107,-172 -164,-260zm-3054 -731l0 -11 16 -1c7,-5 13,-10 20,-15 -88,-191 -106,-406 -80,-634 27,-245 105,-507 200,-773 72,-484 108,-967 121,-1449 12,-460 3,-921 -16,-1382l-1439 -33 -49 -16 -738 -544 -752 -90 -44 -18 -395 -320 -801 -187 -17 -6c-361,-172 -694,-255 -978,-181 -280,72 -519,302 -702,757l-13 21 -673 842 -65 1010c339,412 654,735 933,917 260,170 483,213 654,80l35 -27 43 14c748,239 1399,556 1956,947 559,392 1025,859 1401,1398l7 12c438,903 167,1284 -341,1530 -186,90 -404,160 -629,232 -389,125 -802,257 -1086,512 -269,276 -573,499 -894,657l242 195 299 69 51 35 254 367 491 375 29 40 220 641 415 -238 42 -11 609 0 282 -456 121 -453 21 -37 398 -414 51 -53 126 -280 85 -188 36 -509 25 -55 322 -321c-182,-478 -248,-879 -203,-1208 42,-310 181,-555 409,-739zm232 -20l446 -16c223,-50 446,-90 669,-107 228,-18 456,-13 685,26l21 7c177,80 353,174 530,287 135,86 269,183 403,294l24 -7 9 -3c348,-102 602,-278 771,-493 111,-142 186,-301 226,-469l-193 -143 -412 -305 -865 26 -1411 42 -40 -9 -155 -78 -35 -33 -178 -302 -432 -24c-83,238 -149,469 -173,683 -25,223 -4,427 94,601l13 22zm104 -1475l448 25 46 3 23 40 90 153 98 166 113 57 709 -21 1575 -47 53 17 558 414c5,-56 7,-113 4,-169l-1 -41 31 -27c276,-238 427,-492 486,-758 60,-268 28,-551 -63,-844l-4 -29 49 -1036 17 -363 -786 -491 -17 -14 -15 -17 -462 -495c-246,-114 -454,-125 -632,-53 -150,61 -283,183 -401,353 -27,40 -54,82 -80,126l-21 36 -42 6 -574 79 -1109 152c14,330 22,660 22,990 0,135 -2,270 -6,405 -12,463 -45,924 -110,1385zm-2855 -5183l-799 222 -285 315 24 580 480 112 34 17 391 317 750 90 40 16 735 542 1484 34 1650 -227 -238 -673 -4 -40 82 -588 -417 -607 -14 -38 -53 -467 -580 -793 -766 319 0 0 -2117 925 -48 6 -349 -59z"/>
  <path class="fil3" d="M27745 5636c-1975,1946 1093,4872 2902,2446 5547,-5648 13736,-5210 18816,-1011 2192,2268 5273,-910 2287,-3147 -7884,-5906 -17299,-4991 -24005,1712z"/>
  <path class="fil3" d="M31063 8692c4907,-5167 13264,-5142 18085,-953 2241,1947 -526,4732 -2291,3064 -3604,-3195 -9399,-2922 -12512,31 -2874,2727 -4922,-414 -3281,-2142z"/>
  <path class="fil3" d="M34841 11624c-2141,1656 834,4947 2748,2647 1856,-1619 3775,-1938 5779,-455 2910,2154 4540,-1225 2968,-2594 -3288,-2977 -7915,-2994 -11495,402z"/>
  <circle class="fil3" cx="40638" cy="17059" r="2012"/>
  <path class="fil4" d="M773 22958c-225,-21 -408,-107 -547,-258 -150,-159 -225,-348 -225,-567l0 -6646c0,-114 19,-223 62,-324 41,-103 101,-193 176,-268 163,-163 363,-245 597,-245l3692 0c230,0 427,82 590,245 73,75 129,165 172,268 41,101 62,210 62,324 0,112 -21,221 -62,326 -43,105 -99,195 -172,270 -163,163 -361,245 -590,245l-2855 0 0 1578 2138 0c232,0 427,79 590,234 165,163 247,361 247,590 0,232 -82,425 -247,580 -159,150 -356,225 -590,225l-2138 0 0 1756 2855 0c230,0 427,82 590,245 73,75 129,165 172,270 41,105 62,213 62,326 0,238 -77,436 -234,592 -163,155 -361,232 -590,232l-3754 0z"/>
  <path id="1" class="fil4" d="M6146 22958c-112,0 -221,-21 -326,-62 -105,-43 -197,-101 -277,-176 -172,-161 -258,-352 -258,-580l0 -2265c0,-401 77,-786 232,-1151 157,-365 371,-685 648,-962 277,-277 595,-492 955,-644 361,-152 743,-230 1146,-230 406,0 794,77 1166,230 371,152 700,367 985,644 283,277 507,597 670,962 161,365 240,749 240,1151l0 2265c0,232 -77,423 -232,580 -75,75 -163,133 -264,176 -101,41 -208,62 -322,62 -116,0 -225,-21 -328,-62 -103,-43 -193,-101 -268,-176 -167,-157 -251,-348 -251,-580l0 -2258c-4,-176 -45,-343 -120,-504 -75,-163 -180,-305 -313,-425 -131,-122 -279,-217 -446,-283 -167,-67 -339,-101 -515,-101 -176,0 -346,32 -504,97 -159,67 -294,155 -408,268 -118,118 -210,255 -281,412 -69,157 -105,324 -109,500l0 2295c0,234 -79,427 -238,580 -159,159 -352,238 -580,238z"/>
  <path id="2" class="fil4" d="M14745 23027c-401,0 -786,-77 -1151,-232 -365,-155 -685,-371 -962,-648 -277,-277 -494,-595 -648,-955 -155,-361 -232,-743 -232,-1144l0 -2327c0,-114 21,-221 67,-322 43,-101 103,-189 178,-264 75,-75 165,-135 268,-178 101,-45 208,-67 316,-67 114,0 221,21 324,67 103,43 195,103 275,178 75,75 135,163 178,264 45,101 67,208 67,322l0 2344c0,185 34,356 101,513 67,157 161,292 283,406 120,118 262,208 421,273 159,67 331,99 515,99 180,0 343,-32 492,-99 146,-64 273,-157 378,-279 99,-118 178,-255 232,-414 54,-159 82,-333 82,-515l0 -2327c0,-109 24,-217 69,-318 47,-103 109,-193 189,-268 75,-75 165,-135 270,-178 105,-45 215,-67 326,-67 114,0 221,21 322,67 101,43 189,103 264,178 75,75 133,163 174,264 39,101 58,208 58,322l0 2327c0,406 -69,790 -210,1151 -140,361 -339,676 -601,949 -260,277 -565,494 -914,648 -350,155 -726,232 -1129,232z"/>
  <path id="3" class="fil4" d="M19735 25901c-109,0 -217,-24 -324,-69 -107,-47 -204,-109 -292,-189 -88,-75 -157,-165 -206,-268 -47,-101 -71,-210 -71,-322 0,-144 54,-294 159,-451 107,-157 255,-298 444,-425 202,-133 436,-240 702,-320 266,-79 550,-120 852,-120 260,0 468,-9 627,-28 161,-19 285,-49 378,-90 92,-43 157,-101 193,-174 34,-73 52,-174 52,-298 0,-172 -43,-309 -131,-410 -399,193 -835,290 -1307,290 -416,0 -809,-77 -1181,-236 -371,-157 -698,-378 -983,-663 -286,-281 -509,-607 -668,-981 -159,-374 -238,-766 -238,-1183 0,-414 79,-809 238,-1185 159,-376 382,-704 668,-990 285,-286 612,-507 983,-663 371,-159 764,-236 1181,-236 414,0 809,79 1185,238 376,159 704,380 983,661 281,285 502,614 661,990 159,376 238,771 238,1185 0,601 -161,1151 -483,1649 339,356 509,861 509,1516 0,404 -67,751 -197,1043 -133,294 -316,535 -552,723 -217,172 -472,301 -764,386 -290,88 -599,131 -927,131 -97,0 -167,-2 -213,-6 -47,-4 -118,-6 -215,-6 -150,0 -288,21 -408,64 -122,45 -253,127 -397,243 -155,131 -320,195 -496,195zm1075 -4553c187,0 367,-36 541,-107 172,-71 320,-170 446,-296 129,-129 230,-277 301,-447 71,-167 107,-346 107,-535 0,-187 -36,-365 -107,-535 -71,-167 -172,-316 -301,-446 -127,-125 -275,-223 -446,-294 -174,-71 -354,-107 -541,-107 -185,0 -363,36 -532,107 -170,71 -318,170 -444,294 -129,131 -230,279 -305,446 -73,170 -109,348 -109,535 0,189 36,367 109,535 75,170 176,318 305,447 127,127 275,225 444,296 170,71 348,107 532,107z"/>
  <path id="4" class="fil4" d="M27038 23027c-401,0 -786,-77 -1151,-232 -365,-155 -685,-371 -962,-648 -277,-277 -494,-595 -648,-955 -155,-361 -232,-743 -232,-1144l0 -2327c0,-114 21,-221 67,-322 43,-101 103,-189 178,-264 75,-75 165,-135 268,-178 101,-45 208,-67 316,-67 114,0 221,21 324,67 103,43 195,103 275,178 75,75 135,163 178,264 45,101 67,208 67,322l0 2344c0,185 34,356 101,513 67,157 161,292 283,406 120,118 262,208 421,273 159,67 331,99 515,99 180,0 343,-32 492,-99 146,-64 273,-157 378,-279 99,-118 178,-255 232,-414 54,-159 82,-333 82,-515l0 -2327c0,-109 24,-217 69,-318 47,-103 109,-193 189,-268 75,-75 165,-135 270,-178 105,-45 215,-67 326,-67 114,0 221,21 322,67 101,43 189,103 264,178 75,75 133,163 174,264 39,101 58,208 58,322l0 2327c0,406 -69,790 -210,1151 -140,361 -339,676 -601,949 -260,277 -565,494 -914,648 -350,155 -726,232 -1129,232z"/>
  <path id="5" class="fil4" d="M51886 23027c-307,0 -597,-58 -869,-176 -273,-116 -511,-281 -717,-489 -208,-206 -374,-444 -489,-717 -118,-273 -176,-562 -176,-869l0 -2973c0,-232 82,-429 245,-592 163,-155 361,-232 590,-232 223,0 416,77 580,232 159,163 240,361 245,592l26 2924c0,26 -4,67 -13,127 34,137 107,249 221,335 112,86 243,129 389,129 172,0 318,-64 434,-193 114,-135 170,-283 170,-449l0 -2861c0,-230 84,-427 247,-590 163,-163 361,-245 590,-245 114,0 221,21 322,67 99,43 187,103 264,178 159,167 238,365 238,590l0 2887 0 58c-4,11 -6,30 -6,56 21,137 88,255 197,350 112,92 240,140 386,140 77,0 152,-13 230,-43 79,-30 148,-71 213,-127 137,-107 206,-245 206,-408l0 -2924c0,-232 82,-429 247,-592 163,-155 358,-232 590,-232 221,0 414,77 577,232 165,163 247,361 247,592l0 2973c0,307 -62,597 -182,869 -122,273 -292,511 -511,717 -217,208 -466,374 -747,489 -281,118 -575,176 -880,176 -522,0 -996,-172 -1428,-515 -434,343 -910,515 -1434,515z"/>
  <path id="6" class="fil4" d="M58332 16378c-243,0 -453,-88 -629,-264 -84,-84 -148,-178 -197,-288 -47,-109 -73,-223 -73,-339 0,-245 90,-455 270,-635 172,-172 382,-260 629,-260 122,0 238,24 348,67 107,45 204,109 288,193 176,176 264,386 264,635 0,243 -88,451 -264,627 -84,86 -180,150 -288,195 -109,47 -225,69 -348,69zm0 6648c-112,0 -221,-21 -324,-67 -101,-43 -191,-103 -266,-178 -79,-75 -142,-165 -189,-268 -45,-101 -69,-208 -69,-316l0 -4478c0,-109 24,-217 69,-318 47,-103 109,-193 189,-268 75,-75 167,-135 273,-178 107,-45 217,-67 331,-67 109,0 215,21 318,67 103,43 193,103 268,178 75,75 133,163 172,264 41,101 60,208 60,322l0 4478c0,107 -21,215 -67,316 -43,103 -103,193 -178,268 -75,75 -163,135 -264,178 -101,45 -208,67 -322,67z"/>
  <path id="7" class="fil4" d="M62644 18448c112,0 221,24 326,67 105,45 195,103 270,180 75,75 135,163 180,264 43,101 64,206 64,320 0,114 -21,223 -64,326 -45,105 -105,195 -180,270 -75,77 -165,135 -270,180 -105,43 -215,67 -326,67l-378 0 0 2634 0 26c-4,290 -62,562 -174,820 -109,258 -262,485 -455,683 -197,206 -427,365 -691,479 -264,114 -545,170 -844,170 -234,0 -431,-79 -590,-238 -163,-165 -245,-365 -245,-605 0,-107 21,-215 64,-318 45,-101 105,-191 180,-266 163,-163 361,-245 590,-245 127,0 236,-47 331,-140 94,-92 146,-202 155,-326l0 -2673 -182 0c-236,0 -431,-84 -592,-253 -75,-75 -135,-163 -178,-266 -45,-103 -67,-210 -67,-324 0,-114 21,-219 67,-320 43,-101 103,-189 178,-264 165,-165 361,-247 592,-247l182 0 0 -1653c4,-285 62,-558 176,-820 112,-262 270,-492 470,-689 202,-197 434,-352 693,-464 260,-109 537,-165 829,-165 114,0 223,21 328,67 105,43 197,103 277,178 75,75 135,167 178,273 45,107 67,219 67,331 0,109 -21,215 -67,318 -43,103 -103,193 -178,268 -79,75 -172,135 -277,178 -105,45 -215,67 -328,67l-17 0c-127,9 -234,56 -324,144 -90,88 -140,195 -148,322l0 1646 378 0zm2168 -2069c-243,0 -451,-88 -629,-264 -84,-84 -148,-178 -197,-288 -47,-109 -71,-223 -71,-339 0,-245 90,-455 268,-635 174,-172 382,-260 629,-260 122,0 238,24 348,67 107,45 204,109 288,193 176,176 264,386 264,635 0,243 -88,451 -264,627 -84,86 -180,150 -288,195 -109,47 -225,69 -348,69zm0 6648c-112,0 -221,-21 -322,-67 -103,-43 -193,-103 -268,-178 -79,-75 -142,-165 -189,-268 -45,-101 -69,-208 -69,-316l0 -4478c0,-109 24,-217 69,-318 47,-103 109,-193 189,-268 75,-75 167,-135 275,-178 105,-45 217,-67 328,-67 109,0 215,21 318,67 103,43 193,103 268,178 75,75 133,163 172,264 41,101 60,208 60,322l0 4478c0,107 -21,215 -67,316 -43,103 -103,193 -178,268 -75,75 -163,135 -264,178 -101,45 -208,67 -322,67z"/>
 </g>
</svg>
